<svg width="23" height="28" viewBox="0 0 23 28" fill="none" xmlns="http://www.w3.org/2000/svg">
<path d="M11.5 27.25C13.0125 27.25 14.25 26.0125 14.25 24.5H8.75C8.75 26.0125 9.9875 27.25 11.5 27.25ZM19.75 19V12.125C19.75 7.90375 17.5087 4.37 13.5625 3.435V2.5C13.5625 1.35875 12.6412 0.4375 11.5 0.4375C10.3588 0.4375 9.4375 1.35875 9.4375 2.5V3.435C5.505 4.37 3.25 7.89 3.25 12.125V19L0.5 21.75V23.125H22.5V21.75L19.75 19ZM17 20.375H6V12.125C6 8.715 8.07625 5.9375 11.5 5.9375C14.9237 5.9375 17 8.715 17 12.125V20.375Z" fill="black"/>
</svg>
